PathFileType	4	(X/Y/Z)	C:/Users/opensim2020/Desktop/walking_exp_matlab/subject06_walking21_straight_03.trc																																																																																																																																		
DataRate	CameraRate	NumFrames	NumMarkers	Units	OrigDataRate	OrigDataStartFrame	OrigNumFrames																																																																																																																														
100	100	6	44	mm	100	1821	110																																																																																																																														
Frame#	Time	LFHD			RFHD			LBHD			RBHD			C7			T10			CLAV			STRN			RBAK			LSHO			LUPA			LELB			LFRM			LWRA			LWRB			LFIN			RSHO			RUPA			RELB			RFRM			RWRA			RWRB			RFIN			LASI			RASI			LPSI			RPSI			LTHI			LKNE			LTIB			LANK			LHEE			LTOE			RTHI			RKNE			RTIB			RANK			RHEE			RTOE			*39			*40			*41			*42			*43		
		X1	Y1	Z1	X2	Y2	Z2	X3	Y3	Z3	X4	Y4	Z4	X5	Y5	Z5	X6	Y6	Z6	X7	Y7	Z7	X8	Y8	Z8	X9	Y9	Z9	X10	Y10	Z10	X11	Y11	Z11	X12	Y12	Z12	X13	Y13	Z13	X14	Y14	Z14	X15	Y15	Z15	X16	Y16	Z16	X17	Y17	Z17	X18	Y18	Z18	X19	Y19	Z19	X20	Y20	Z20	X21	Y21	Z21	X22	Y22	Z22	X23	Y23	Z23	X24	Y24	Z24	X25	Y25	Z25	X26	Y26	Z26	X27	Y27	Z27	X28	Y28	Z28	X29	Y29	Z29	X30	Y30	Z30	X31	Y31	Z31	X32	Y32	Z32	X33	Y33	Z33	X34	Y34	Z34	X35	Y35	Z35	X36	Y36	Z36	X37	Y37	Z37	X38	Y38	Z38	X39	Y39	Z39	X40	Y40	Z40	X41	Y41	Z41	X42	Y42	Z42	X43	Y43	Z43	X44	Y44	Z44
																																																																																																																																					
56	0.55	-55.01324	1659.20435	-1113.14307	-63.5089	1646.84021	-982.19794	-186.03757	1603.43542	-1123.55371	-193.34404	1595.49792	-994.84613	-189.7827	1446.79871	-1066.59265	-232.9151	1119.05579	-1049.24219	-81.83533	1366.73096	-1058.78406	-45.81659	1190.97095	-1059.60913	-270.74536	1279.54724	-986.35938	-129.67847	1396.49011	-1223.80151	-153.72882	1196.59253	-1297.29297	-177.44736	1086.79309	-1311.46301	-177.00354	938.20813	-1339.09265	-139.16148	812.92944	-1301.23877	-198.25777	821.0163	-1341.38806	-173.49965	733.77136	-1345.59692	-135.79843	1404.36035	-900.37384	-193.57057	1212.66003	-811.495	-190.46472	1090.51257	-798.19391	-158.6861	975.10089	-783.29449	-71.90551	854.25891	-818.40906	-126.8101	842.12134	-781.44861	-75.55113	776.17487	-780.51184	-54.84643	962.09814	-1153.77356	-65.30771	957.3526	-935.38599	-213.96288	987.46423	-1132.85547	-214.5152	979.63354	-965.38171	-85.58619	648.5014	-1213.62427	-57.33526	489.04071	-1182.49512	-96.22025	233.39331	-1169.3584	-108.02934	64.13788	-1122.19714	-148.71353	51.54242	-1075.17212	34.16482	36.45492	-1122.8363	-67.38266	621.33826	-881.8551	-27.72803	501.43164	-896.46271	-200.31636	320.1586	-909.95538	-344.15414	206.29141	-958.42303	-385.69574	222.19693	-1004.22766	-282.63785	62.56385	-966.87238	-159.18372	1695.52429	-1060.65503	NaN	NaN	NaN	NaN	NaN	NaN	NaN	NaN	NaN	NaN	NaN	NaN
57	0.56	-40.56449	1661.00684	-1112.5448	-49.08076	1648.30908	-981.65179	-171.71133	1605.55444	-1123.22571	-179.207	1597.33252	-994.57324	-175.5592	1448.3877	-1066.78638	-219.16997	1121.10034	-1050.48157	-68.00478	1368.52039	-1058.99268	-32.25628	1192.78235	-1060.21301	-256.94305	1281.65112	-987.1239	-115.47536	1398.84521	-1223.86804	-136.05435	1198.6095	-1297.56165	-156.6436	1088.13269	-1312.18298	-151.88763	939.58783	-1339.4585	-111.0631	815.47162	-1300.83716	-169.85014	821.94916	-1341.81006	-142.20532	735.64221	-1345.83093	-122.13293	1405.9635	-900.66614	-180.70322	1214.25647	-812.50317	-178.82802	1092.03284	-799.66022	-150.63	975.56445	-784.32007	-68.37597	851.11511	-818.29797	-124.35113	841.23401	-781.54089	-75.37432	773.10162	-780.49774	-41.70369	963.51062	-1154.97485	-51.24797	960.2406	-936.35687	-200.42953	989.11133	-1133.45764	-200.26282	981.97247	-966.24109	-76.37601	648.84662	-1213.53528	-51.74722	488.64713	-1182.49744	-93.55828	233.32834	-1169.50256	-107.63187	64.24287	-1121.9519	-148.70021	51.65656	-1075.15601	34.26117	36.36959	-1122.63184	-47.08952	626.04535	-882.39807	-4.25619	507.02509	-897.69476	-171.21826	319.25894	-910.34985	-310.07977	198.6687	-958.27972	-352.95755	210.94342	-1004.46509	-237.63226	61.18295	-963.03955	-144.7103	1697.39819	-1060.12512	NaN	NaN	NaN	NaN	NaN	NaN	NaN	NaN	NaN	NaN	NaN	NaN
58	0.57	-26.07904	1662.3158	-1111.90063	-34.77127	1649.39465	-981.00787	-157.43602	1607.51392	-1122.90576	-165.05458	1598.8678	-994.28247	-161.76024	1449.92249	-1067.01843	-205.54556	1122.93555	-1051.48962	-54.23487	1370.10071	-1059.17432	-18.61079	1194.36279	-1060.86768	-243.17522	1283.47375	-987.78442	-101.23768	1401.04102	-1223.93384	-118.55486	1200.67883	-1298.026	-136.26009	1089.69141	-1312.81323	-126.70872	941.10883	-1339.74231	-82.56864	818.35315	-1300.36646	-140.98849	822.95776	-1342.04761	-110.49524	737.76843	-1345.76086	-108.46005	1407.36816	-901.02478	-167.89163	1215.74939	-813.44684	-167.4157	1093.43567	-801.11017	-142.78879	976.06879	-785.23846	-64.95122	848.13892	-818.21143	-121.24293	840.48328	-781.88806	-75.33764	770.35645	-780.47382	-28.59371	964.71564	-1156.27917	-37.27618	962.88757	-937.35065	-186.83093	990.53314	-1133.96045	-186.41142	984.28632	-966.67041	-67.13889	649.06335	-1213.26453	-46.3553	488.15622	-1182.59705	-90.87074	233.2341	-1169.55164	-107.42594	64.43669	-1121.82874	-148.65399	51.90595	-1075.17773	34.47809	36.17752	-1122.49866	-27.13612	630.58344	-882.85913	18.47719	512.42236	-899.04913	-142.30067	317.82605	-910.80536	-275.02979	190.04298	-958.09198	-318.97458	198.45604	-1004.65771	-191.96075	59.88517	-959.86066	-130.12111	1699.01038	-1059.39929	NaN	NaN	NaN	NaN	NaN	NaN	NaN	NaN	NaN	NaN	NaN	NaN
59	0.58	-11.61005	1663.44348	-1111.0979	-20.69541	1650.03674	-980.2973	-143.18109	1609.28601	-1122.50598	-150.97594	1600.15417	-993.91046	-147.91316	1451.15332	-1067.16565	-191.98927	1124.63916	-1052.43408	-40.48935	1371.36499	-1059.40491	-5.0144	1195.69531	-1061.57971	-229.46068	1285.01501	-988.43024	-87.06487	1402.9845	-1223.93201	-101.33424	1202.41577	-1298.35413	-116.15056	1091.08435	-1313.55457	-101.6004	942.73322	-1340.05884	-53.96524	821.54071	-1299.70581	-111.85284	824.19879	-1342.05115	-78.30241	740.13959	-1345.3363	-94.80927	1408.4458	-901.36511	-155.211	1217.01428	-814.18823	-156.14864	1094.5675	-802.37659	-135.08203	976.43622	-786.11926	-61.01529	845.69012	-817.43201	-118.26493	840.01331	-781.87567	-75.24007	767.86621	-780.44159	-15.35308	965.59619	-1157.61975	-22.85253	965.28278	-938.54657	-173.36031	991.77362	-1134.35864	-172.04723	986.16956	-967.22729	-58.15803	649.0885	-1213.27344	-41.31109	487.56357	-1182.84009	-88.45404	233.14082	-1169.46338	-107.12405	64.58031	-1121.68884	-148.58548	52.076	-1075.18799	34.76266	36.06836	-1122.67322	-7.49745	634.53894	-883.23682	40.28156	517.45374	-900.3786	-113.25118	315.48566	-911.10968	-238.8999	180.7326	-957.7594	-283.64133	185.24477	-1004.638	-146.56451	57.92473	-956.87964	-115.575	1700.41113	-1058.58569	NaN	NaN	NaN	NaN	NaN	NaN	NaN	NaN	NaN	NaN	NaN	NaN
60	0.59	2.85356	1664.28979	-1110.26917	-6.52674	1650.46277	-979.4552	-128.87614	1610.79163	-1122.10779	-136.91777	1601.14404	-993.5564	-134.08807	1452.12732	-1067.26514	-178.43295	1125.96179	-1053.26904	-26.70883	1372.42102	-1059.59241	8.74983	1196.72571	-1062.32214	-215.70169	1286.16003	-989.04205	-73.02936	1404.67224	-1224.02576	-84.09418	1204.07336	-1298.75891	-96.22127	1092.36499	-1314.37476	-76.6008	944.37402	-1340.40662	-25.14669	825.12646	-1299.22949	-82.5621	825.4953	-1341.8584	-45.89623	742.8476	-1344.68066	-81.09476	1409.18079	-901.60663	-142.74933	1218.04736	-815.08264	-145.08975	1095.39734	-803.48486	-127.49824	976.60327	-786.92419	-57.56664	842.95752	-817.75507	-115.07016	839.67426	-781.71832	-74.93015	765.54327	-780.22656	-2.93627	965.56073	-1158.93396	-8.56874	967.22009	-939.68341	-159.80319	992.69531	-1134.67786	-157.71574	987.76825	-967.5752	-49.49838	649.01984	-1213.51428	-36.53927	486.93747	-1183.31055	-86.87916	233.04434	-1169.91821	-106.82268	64.76154	-1121.53931	-148.47464	52.64399	-1075.22314	35.18489	35.79183	-1122.73621	12.05856	638.31921	-883.5871	61.24283	521.78564	-901.74554	-83.86375	312.29556	-911.4649	-201.9594	170.5015	-957.52698	-246.9995	171.50833	-1004.69409	-100.86524	55.71792	-953.95532	-101.02647	1701.52734	-1057.74939	NaN	NaN	NaN	NaN	NaN	NaN	NaN	NaN	NaN	NaN	NaN	NaN
61	0.6	17.32118	1664.91101	-1109.37402	7.77342	1650.70764	-978.59229	-114.587	1611.9303	-1121.65613	-122.9401	1601.77722	-993.16376	-120.29189	1452.81909	-1067.33936	-164.7108	1126.92908	-1054.04431	-12.93106	1373.14478	-1059.72351	22.55884	1197.49329	-1063.05847	-202.03566	1286.84094	-989.7746	-58.94157	1405.948	-1223.89001	-66.9231	1205.43408	-1299.36243	-76.58132	1093.49194	-1315.29968	-51.7304	946.01886	-1340.73645	3.32676	828.44861	-1298.42603	-53.21558	826.95624	-1341.49561	-13.1798	745.87756	-1343.75623	-67.37904	1409.53894	-901.80505	-130.26115	1218.5813	-815.64117	-134.15068	1095.88477	-804.45642	-120.02612	976.54712	-787.58496	-54.81097	839.95123	-817.82867	-112.00114	839.20746	-781.87921	-74.6657	763.50226	-780.16809	10.99849	966.24908	-1160.474	6.10495	968.67517	-941.0863	-146.47552	993.32745	-1134.86377	-143.63197	989.08191	-967.60779	-40.99384	648.92334	-1213.65747	-31.99159	486.328	-1183.91382	-85.55837	233.19739	-1170.11536	-106.53503	65.04165	-1121.4834	-147.86827	53.02744	-1075.10498	35.51579	35.41092	-1122.9657	31.07508	641.45343	-883.88306	81.77987	525.83698	-903.05969	-54.32158	308.48843	-911.89655	-164.08112	159.81596	-957.31183	-208.91957	157.50906	-1004.45032	-55.57926	52.88922	-951.79852	-86.56901	1702.28259	-1056.9281	NaN	NaN	NaN	NaN	NaN	NaN	NaN	NaN	NaN	NaN	NaN	NaN
